<?xml version="1.0" standalone="no"?>
<!DOCTYPE svg PUBLIC "-//W3C//DTD SVG 20010904//EN"
 "http://www.w3.org/TR/2001/REC-SVG-20010904/DTD/svg10.dtd">
<svg version="1.0" xmlns="http://www.w3.org/2000/svg"
 width="799.888341pt" height="401.455669pt" viewBox="0 0 799.888341 401.455669"
 preserveAspectRatio="xMidYMid meet">
<metadata>
Created by Potrace Professional 1.1m
</metadata>
<g transform="translate(-0.000000,401.455669) rotate(-360.00) scale(0.095238,-0.095238)"
fill="#000000" stroke="none">
<path d="M4520 4214 c-801 -20 -1635 -160 -2484 -417 -245 -75 -504 -165 -690
-241 -170 -70 -180 -76 -181 -108 0 -32 -18 -36 200 42 665 237 1449 402 2242
471 212 18 1011 18 1202 0 518 -50 885 -123 1182 -234 286 -108 489 -256 568
-416 26 -54 30 -72 30 -161 0 -93 -3 -105 -38 -178 -49 -103 -111 -170 -258
-280 -117 -88 -119 -91 -119 -131 0 -40 1 -41 24 -29 55 29 230 149 312 216
306 246 457 493 423 692 -17 97 -56 169 -139 259 -228 243 -611 383 -1287 468
-266 34 -692 54 -987 47z"/>
<path d="M4618 2633 c-9 -13 -67 -121 -129 -239 -432 -821 -631 -1115 -1134
-1680 -85 -95 -167 -193 -182 -217 -40 -64 -50 -56 -11 9 163 277 381 818 471
1167 70 275 106 568 85 708 -14 100 -56 187 -106 221 -74 50 -201 18 -335 -85
-126 -97 -300 -293 -419 -471 -59 -88 -160 -271 -159 -291 0 -8 21 -12 60 -12
l60 0 39 76 c96 186 222 338 308 371 96 37 133 0 139 -141 19 -383 -207 -1143
-549 -1847 l-98 -202 65 0 65 0 152 139 c230 210 663 647 793 799 196 229 406
520 509 703 19 34 36 59 38 57 5 -5 -54 -288 -102 -496 -102 -438 -228 -810
-366 -1086 -29 -58 -53 -108 -53 -111 0 -3 25 -5 56 -5 l57 0 256 260 c473
481 840 893 1073 1209 140 188 351 560 432 762 67 167 97 340 68 395 -31 58
-159 -24 -301 -193 -119 -140 -129 -159 -129 -238 0 -269 -160 -624 -447 -998
-71 -93 -156 -192 -465 -542 -66 -74 -130 -151 -142 -169 -12 -19 -26 -34 -31
-34 -4 0 4 15 18 34 14 18 52 83 83 144 204 395 360 932 406 1395 23 225 9
504 -30 603 -13 35 -25 36 -45 5z"/>
<path d="M7010 2567 c-504 -82 -863 -433 -958 -937 -23 -123 -23 -356 0 -477
55 -290 192 -523 409 -696 205 -164 452 -247 736 -247 757 0 1284 597 1191
1349 -62 506 -418 891 -922 998 -112 24 -341 29 -456 10z m390 -316 c310 -64
554 -293 644 -604 31 -111 38 -300 15 -424 -55 -294 -246 -536 -508 -641 -122
-50 -188 -62 -337 -62 -150 0 -216 12 -338 62 -351 142 -554 503 -512 914 39
386 295 675 667 755 97 21 270 21 369 0z"/>
<path d="M0 1391 l0 -1160 147 0 147 0 0 882 c0 552 4 882 10 882 11 0 15 -5
578 -687 205 -248 490 -592 633 -764 l260 -314 134 3 133 3 3 1158 3 1158
-153 0 -152 0 0 -889 c0 -516 -4 -886 -9 -884 -6 2 -117 133 -249 292 -344
416 -570 690 -1080 1305 l-146 176 -130 0 -129 0 0 -1161z"/>
</g>
</svg>
