<?xml version="1.0" encoding="utf-8"?>
<!-- Generator: Adobe Illustrator 18.0.0, SVG Export Plug-In . SVG Version: 6.00 Build 0)  -->
<!DOCTYPE svg PUBLIC "-//W3C//DTD SVG 1.1//EN" "http://www.w3.org/Graphics/SVG/1.1/DTD/svg11.dtd">
<svg version="1.1"
	 id="svg2" xmlns:inkscape="http://www.inkscape.org/namespaces/inkscape" xmlns:sodipodi="http://sodipodi.sourceforge.net/DTD/sodipodi-0.dtd" xmlns:svg="http://www.w3.org/2000/svg" xmlns:rdf="http://www.w3.org/1999/02/22-rdf-syntax-ns#" xmlns:cc="http://web.resource.org/cc/" xmlns:dc="http://purl.org/dc/elements/1.1/" sodipodi:docbase="/home/frolov/www/artwork" inkscape:export-xdpi="90" sodipodi:version="0.32" sodipodi:docname="alpha.svg" inkscape:export-ydpi="90" inkscape:version="0.44.1" inkscape:export-filename="/home/frolov/www/artwork/alpha.png"
	 xmlns="http://www.w3.org/2000/svg" xmlns:xlink="http://www.w3.org/1999/xlink" x="0px" y="0px" viewBox="102 316.2 540 420"
	 enable-background="new 102 316.2 540 420" xml:space="preserve">
<sodipodi:namedview  id="base" pagecolor="#ffffff" bordercolor="#666666" borderopacity="1.0" gridtolerance="10000" guidetolerance="10" objecttolerance="10" inkscape:zoom="1.8149645" inkscape:cx="544.91983" inkscape:cy="526.18109" inkscape:current-layer="layer1" inkscape:window-height="1170" inkscape:window-width="1910" inkscape:window-x="0" inkscape:pageopacity="0.0" inkscape:document-units="px" inkscape:window-y="0" inkscape:pageshadow="2">
	</sodipodi:namedview>
<g id="layer1" inkscape:groupmode="layer" inkscape:label="Layer 1">
	
		<radialGradient id="path1878_1_" cx="557.1722" cy="775.4321" r="350.6151" gradientTransform="matrix(0.6407 -0.3865 -0.222 -0.368 113.3409 984.23)" gradientUnits="userSpaceOnUse">
		<stop  offset="0" style="stop-color:#000000"/>
		<stop  offset="1" style="stop-color:#000000;stop-opacity:0"/>
	</radialGradient>
	<path id="path1878" sodipodi:nodetypes="cssssssccssssscssccsssssssccsssssc" fill="url(#path1878_1_)" d="M456.1,390.8
		c-0.3-0.4-0.5-0.7-0.8-1.1c-1.4-1.9-3-3.7-4.7-5.4c-31.4-31.1-112.5-21-179.4,35.1c-43.6,36.6-69.9,89.4-41.1,107.7
		c16.3,10.4,54.4,4,80.2-23.3c11.1-11.7,18.9-31.3,3.3-30.8c-2.7,0.1-15.3,4.7-13.5,8.7c0.4,0.7,0.3,0.4,0.7,0.1
		c6.5-4.4,4.3,4.4,2.8,7c-8.4,14.7-30.5,20.2-40,17.5c-22.2-6.4-8.6-38.7,15-61.3c41.7-39.9,98.3-50,122.8-32.6
		c37.5,26.6,4,97.7-56.7,148.6c-49.1,41.2-104.5,63.9-150.8,68.5c46.4,3,109-18.1,167.1-60.4c50.8-37,90-83.1,103.2-123.3
		C471.4,423.7,466.6,405.3,456.1,390.8z M391.5,336.9c-44.9,0.8-102.1,21.8-155.5,60.7c-51.8,37.7-91.8,85-104.1,125.7
		c-7.6,25-0.4,45.1,14.8,59.7c32,30.7,113.7,19.9,180.4-36.7c43.5-36.9,69.3-89.6,40-107.6c-16.6-10.2-54.9-3.5-80.5,23.9
		c-11,11.8-18.6,31.3-2.9,30.7c2.8-0.1,15.6-4.8,13.7-8.8c-0.1-0.3-0.1-0.4-0.3-0.3c-6.2,4.8-6.1-3.4-4.9-5.9
		c6.7-14.4,29.2-21.8,39.7-20.3c24.4,3.6,14.9,34.7-6.7,57.9c-38.1,41-96.4,56.3-124.8,42.9c-43.6-20.5-18.8-89.3,37.7-142.5
		C285.2,372.2,342.3,345.1,391.5,336.9z"/>
	
		<linearGradient id="path1872_1_" gradientUnits="userSpaceOnUse" x1="327.4598" y1="572.7748" x2="371.584" y2="407.9787" gradientTransform="matrix(1 0 0 -1 26.6201 1116.0316)">
		<stop  offset="0" style="stop-color:#000000"/>
		<stop  offset="1" style="stop-color:#008021"/>
	</linearGradient>
	<path id="path1872" fill="url(#path1872_1_)" d="M473.1,470.6l-83.6,144.6l-44-76.3l-62.2,107.6L253,594.1l-66.9,115.7h133.7h124.2
		v0l167.1,0L473.1,470.6z M473.1,484.6l42,72.8l-19.9-7.7l-21,11L459.8,542L431,557.4L473.1,484.6z"/>
	<g id="g2952" transform="matrix(0.524845,0,0,0.524845,380.285,250.6206)" inkscape:label="Layer 1">
		
			<radialGradient id="path3994_1_" cx="-544.3238" cy="-249.7269" r="70.5191" gradientTransform="matrix(-0.6152 1.342728e-02 2.801207e-02 1.2833 56.3337 801.024)" gradientUnits="userSpaceOnUse">
			<stop  offset="0" style="stop-color:#000000"/>
			<stop  offset="1" style="stop-color:#000000;stop-opacity:0"/>
		</radialGradient>
		<path id="path3994" sodipodi:nodetypes="ccccccccc" fill="url(#path3994_1_)" d="M382.9,399.7l14.7,62.9l45,10.2l-44.6,14.7
			l-10.7,165.2l-14.4-164.9l-71.3-10.6l71-14.7L382.9,399.7z"/>
	</g>
	<g id="g2955" transform="matrix(0.333039,0,0,0.333039,467.9037,198.2135)" inkscape:label="Layer 1">
		
			<radialGradient id="path2957_1_" cx="-1436.6429" cy="-564.3743" r="70.5191" gradientTransform="matrix(-0.3903 8.520243e-03 1.777499e-02 0.8143 -166.5724 945.0635)" gradientUnits="userSpaceOnUse">
			<stop  offset="0" style="stop-color:#000000"/>
			<stop  offset="1" style="stop-color:#000000;stop-opacity:0"/>
		</radialGradient>
		<path id="path2957" sodipodi:nodetypes="ccccccccc" fill="url(#path2957_1_)" d="M382.9,399.7l14.7,62.9l45,10.2l-44.6,14.7
			l-10.7,165.2l-14.4-164.9l-71.3-10.6l71-14.7L382.9,399.7z"/>
	</g>
	<g id="g2961" transform="matrix(0.192255,0,0,0.192255,428.7242,287.8978)" inkscape:label="Layer 1">
		
			<radialGradient id="path2963_1_" cx="-3380.8281" cy="-2583.2825" r="70.5191" gradientTransform="matrix(-0.2253 4.918521e-03 1.026105e-02 0.4701 -351.1336 1704.2532)" gradientUnits="userSpaceOnUse">
			<stop  offset="0" style="stop-color:#000000"/>
			<stop  offset="1" style="stop-color:#000000;stop-opacity:0"/>
		</radialGradient>
		<path id="path2963" sodipodi:nodetypes="ccccccccc" fill="url(#path2963_1_)" d="M382.9,399.7l14.7,62.9l45,10.2l-44.6,14.7
			l-10.7,165.2l-14.4-164.9l-71.3-10.6l71-14.7L382.9,399.7z"/>
	</g>
	<g id="g2967" transform="matrix(0.153022,0,0,0.153022,491.2969,353.2172)" inkscape:label="Layer 1">
		
			<radialGradient id="path2969_1_" cx="-5491.6768" cy="-4540.5117" r="70.5191" gradientTransform="matrix(-0.1794 3.914811e-03 8.167104e-03 0.3742 -563.6802 2193.6328)" gradientUnits="userSpaceOnUse">
			<stop  offset="0" style="stop-color:#000000"/>
			<stop  offset="1" style="stop-color:#000000;stop-opacity:0"/>
		</radialGradient>
		<path id="path2969" sodipodi:nodetypes="ccccccccc" fill="url(#path2969_1_)" d="M382.9,399.7l14.7,62.9l45,10.2l-44.6,14.7
			l-10.7,165.2l-14.4-164.9l-71.3-10.6l71-14.7L382.9,399.7z"/>
	</g>
	<g id="g2973" transform="matrix(9.199289e-2,0,0,9.199289e-2,475.5026,410.701)" inkscape:label="Layer 1">
		
			<radialGradient id="path2975_1_" cx="-13479.3115" cy="-12871.6709" r="70.5191" gradientTransform="matrix(-0.1078 2.353484e-03 4.909853e-03 0.2249 -1005.9865 3400.2903)" gradientUnits="userSpaceOnUse">
			<stop  offset="0" style="stop-color:#000000"/>
			<stop  offset="1" style="stop-color:#000000;stop-opacity:0"/>
		</radialGradient>
		<path id="path2975" sodipodi:nodetypes="ccccccccc" fill="url(#path2975_1_)" d="M382.9,399.7l14.7,62.9l45,10.2l-44.6,14.7
			l-10.7,165.2l-14.4-164.9l-71.3-10.6l71-14.7L382.9,399.7z"/>
	</g>
	<path id="text1903" fill="#FFFFFF" d="M247.1,695c-1.2,0.2-3,0.4-4.4,0.4c-9.1,0-12.7-4.4-12.7-8.6c0-6,6.8-11.1,15.6-12.2
		l-0.4-2.2c-12.2,2.2-17.8,8.9-17.8,14.8c0,3.5,3.4,10.1,14.9,10.1c2.2,0,4.1-0.2,5-0.3L247.1,695 M265.3,697.3c10.5,0,14-8,14-13.3
		c0-7.3-5-11.6-11.8-11.6c-8.7,0-14.2,6.2-14.2,13.7C253.4,692,257.7,697.3,265.3,697.3L265.3,697.3 M265.7,695.5
		c-6.4,0-9.8-4.6-9.8-9.9c0-6,4.3-11.4,11.2-11.4c5.7,0,9.8,3.7,9.8,9.9C276.9,691.1,271.9,695.5,265.7,695.5L265.7,695.5
		 M291.3,697.4c6.7-1.5,10.4-5,10.4-8.4c0-2.4-1.8-3.6-4.8-5.2c-2.4-1.2-4.8-2-4.8-4c0-3,5.1-5.1,8.1-5.5l-0.6-2c-4.9,1-10,4.2-10,8
		c0,2.4,2.4,3.7,5.2,5c3.2,1.5,4.4,2.2,4.4,4.2c0,3.3-5,5.2-8.6,5.9L291.3,697.4 M312.6,697.6c0.4-1.3,4.9-15.9,6-19.9h0.1
		c1.7,3.6,6.4,13.2,8.2,16.6h0.2c1.5-2.5,7.2-12.6,9.1-16.3c1,3.2,5.9,17.1,6.8,19.6l2.2-0.8c-1.6-4-7.5-20.6-8.5-23.3h-0.2
		c-0.7,1.1-7.6,13.6-9.3,16.8c-1.5-3-7.7-15.6-8.8-17.9h-0.2c-0.2,0.9-7.2,22.8-7.9,24.6L312.6,697.6 M365.3,697.3
		c10.5,0,14-8,14-13.3c0-7.3-5-11.6-11.8-11.6c-8.7,0-14.2,6.2-14.2,13.7C353.4,692,357.7,697.3,365.3,697.3L365.3,697.3
		 M365.7,695.5c-6.4,0-9.8-4.6-9.8-9.9c0-6,4.3-11.4,11.2-11.4c5.7,0,9.8,3.7,9.8,9.9C376.8,691.1,371.9,695.5,365.7,695.5
		L365.7,695.5 M390.5,672.9c0.1,0.6,0.1,8.8,0.1,9.4v4.5c0,0.8,0,8.1-0.2,9.9c0.8,0,11,0.4,12.1,0.4v-2.2c-3.8,0.1-8.7,0-9.5,0
		v-10.3c0-4.3,0.1-11,0.2-11.7H390.5 M422.3,697.3c10.5,0,14-8,14-13.3c0-7.3-5-11.6-11.8-11.6c-8.7,0-14.2,6.2-14.2,13.7
		C410.3,692,414.7,697.3,422.3,697.3L422.3,697.3 M422.7,695.5c-6.4,0-9.8-4.6-9.8-9.9c0-6,4.3-11.4,11.2-11.4
		c5.7,0,9.8,3.7,9.8,9.9C433.8,691.1,428.9,695.5,422.7,695.5L422.7,695.5 M466.1,689.7v-3.4h-2.4c0,0.7,0.1,3,0.1,4.8v3.8
		c-1.2,0.3-3,0.5-4.9,0.5c-7.5,0-11-4-11-8.1c0-5.8,6.6-11.2,15.6-13l-0.6-2.1c-13.5,3.3-17.6,11-17.6,15c0,5.6,4.9,10,13.1,10
		c3.6,0,6.4-0.6,7.7-1c0-0.5-0.1-3.2-0.1-4.5V689.7 M486.3,696.7c-0.1-0.7-0.2-3.7-0.2-4.2v-3.1c0-3.7,1.2-7.2,4.1-10.4
		c2-2.3,4.6-3.8,6.9-4.6l-0.7-2c-2,0.6-5.1,2.6-6.8,4.4c-2,2.1-3.5,4.4-4.4,7.6h-0.1c-0.8-3.6-2.8-6.1-4.6-8.1
		c-0.9-1-3.3-2.9-5.4-3.9l-1,1.9c1.8,0.8,3.7,2.2,5.2,3.8c2.8,3,4.5,6.8,4.5,11.3v2.5c0,0.4-0.1,4-0.1,4.8H486.3"/>
	<path id="path1948" fill="#FFFFFF" d="M504.6,621.9c6.9-4,7.6-11,7.5-16l-0.2-5.4c-0.2-4.1,1-8.1,3.8-9.8c3.1-1.8,7.1-1.1,9.5,3
		c2.6,4.5-0.4,9.8-3,12.7c-0.3,0.9,0.7,2.4,1.6,2.3c4.2-2.4,7.2-5,8.3-6.3c-0.3-0.8-0.5-1.5-0.7-2.4c-0.7-2.9-1.9-5.6-3.1-7.7
		c-5.2-9-13.3-11.7-20.3-7.6c-6.2,3.6-7.1,10.6-6.7,16.4c0.3,4.8,0,11.3-5,14.2c-3.1,1.8-7.5,1.5-10.2-3.1
		c-3.1-5.3,0.3-12.8,3.6-16.4c0.4-0.9-0.5-2.3-1.6-2.3c-4.2,2.4-8.3,5.9-8.9,7.8c0,1.7,0.4,6.2,3.8,12
		C488.3,622.9,496.9,626.3,504.6,621.9 M538.9,625.8c2.4-1.4,2.6-1.5,3.7,0.6l2.8,4.9c1.8,3.2,2.2,5.5,1.5,7.3
		c-0.5,1.1-1.7,2.5-3.8,4.6c-0.1,1,0.8,2.4,1.6,2.2c4.1-2.5,8.6-5.1,9.7-5.7c-0.6-0.8-2.7-4.3-5-8.3l-7.6-13.1
		c-1.7-3-3.5-6.1-4.9-8.9c-0.6-0.5-2.2,0.4-2.3,1.1l0.5,1.4c1.2,3.1,0.8,3.8-5,7.1L507,632.3c-5.8,3.3-6.5,3.2-8.5,0.7l-1.5-1.9
		c-0.7-0.3-2.1,0.5-2.2,1.3c2.3,3.7,4.1,6.8,5.8,9.6c1.7,3,3.4,6.1,5.5,10c0.6,0.2,2.1-0.6,2.2-1.3l-1-2.5c-1.2-3-1-3.7,4.8-7
		l8.4-4.9c1.7-1,1.9-1,2.9,0.7l2.8,4.8c1.9,3.3,1.8,4.3-0.8,6.6l-1.3,1.2c-0.3,0.8,0.7,2.3,1.4,2.3c1.8-1.2,4.1-2.6,6.4-3.9
		c2.4-1.4,4.7-2.6,6.8-3.7c0.3-0.7-0.5-2.3-1.3-2.4l-1.7,0.6c-3.4,1.1-4.2,0.7-6.2-2.6l-2.8-4.8c-1-1.7-0.8-1.9,0.9-2.8L538.9,625.8
		 M535,663.1c-6.8,3.9-10.7,7.8-11.7,12.3c-1,4.7,0.5,9,3,13.3c2.7,4.6,6.6,7.9,11,8.7c5.6,0.9,11.3-1.7,17.1-5l7-4
		c5.1-2.9,9.9-5.4,11.9-5.7c1.6-0.2,2.6,0.6,3.8,1.9l0.8,0.9c0.8,0.2,1.9-0.7,2.1-1.2c-1.4-2.1-2.6-4.2-3.9-6.3
		c-1.3-2.3-2.6-4.6-4.2-7.7c-0.6-0.1-1.9,0.5-2.1,1.2l0.6,1.7c0.6,1.7,0.9,3.2-0.1,4.5c-1.3,1.6-5.9,4.5-10.9,7.4l-7.5,4.4
		c-8.5,4.9-16.8,6.7-21-0.5c-5-8.6,2.6-14,9.9-18.2l14.4-8.3c5.8-3.3,6.5-3.3,8.5-1l1,1.2c0.6,0.2,2-0.6,2.1-1.2
		c-1.7-2.7-3.4-5.4-5-8.2c-1.6-2.7-3.2-5.6-4.6-8.4c-0.7-0.4-2.1,0.4-2.2,1.1l0.5,1.6c0.9,2.9,0.7,3.4-5.1,6.8L535,663.1"/>
</g>
</svg>
